<svg xmlns="http://www.w3.org/2000/svg" viewBox="0 0 114.79 187.8"><defs><style>.cls-1{fill:#5b4b3b;}.cls-1,.cls-2,.cls-3{fill-rule:evenodd;}.cls-2{fill:#8ec640;}.cls-3{fill:#fff;}</style></defs><g id="Layer_2" data-name="Layer 2"><g id="Layer_1-2" data-name="Layer 1"><path class="cls-1" d="M78.63,71.81a1.31,1.31,0,0,0-.28,0c-1.35.43-2.6-.2-3.87-.45a3.66,3.66,0,0,1-2-1.61c-.12-.17-.21-.37.06-.51l.29.15a2.72,2.72,0,0,1,1.47.61,1.68,1.68,0,0,0,1.28.1,10.86,10.86,0,0,0,4.28-1.9A35.52,35.52,0,0,0,88.73,59c2.19-3.25,3.58-6.74,3.27-10.75q-.23-3-.41-6.1c-.08-1.36-.13-2.72-.19-4.08a6.56,6.56,0,0,0-.12-1.44,2.81,2.81,0,0,0-.57.38c-.67.54-1.07,1.33-1.81,1.8a16.4,16.4,0,0,1-3.28,1.75,4,4,0,0,0-.77.45,19,19,0,0,1-2.58,2c-.43.22-.89.37-1.29.62a31.35,31.35,0,0,1-2.83,1.86,7.19,7.19,0,0,0-1.74,1.25,5.63,5.63,0,0,1-1.31,1,4.62,4.62,0,0,0-1.43,1.08c-1,1.2-2.21,2.28-3.24,3.5a17.09,17.09,0,0,0-2.69,4,10.16,10.16,0,0,0-1.26,4.57.48.48,0,0,1-.14.42.77.77,0,0,0,0,1c.18.26.42-.11.65-.15a1.9,1.9,0,0,0,.43-.21,21.64,21.64,0,0,0,5.89-3,51.78,51.78,0,0,0,9.62-8.17,4.14,4.14,0,0,1,2.19-1.32,1.13,1.13,0,0,1,.93.29c.22.15-.1.39-.16.59a1.14,1.14,0,0,0,0,.79,1.61,1.61,0,0,1,0,1.25c-.45.75-.74,1.66-1.63,2.08-.21.1-.17.31-.2.52s.16.57-.15.83a10.92,10.92,0,0,0-1.93,2,7,7,0,0,1-2.37,2.24.2.2,0,0,0-.15.2c0,.55-.39.71-.8.88a5.67,5.67,0,0,0-1.17.62c-.63.45-1.21,1-1.85,1.43-1.23.87-2.72,1.25-3.9,2.19a1.91,1.91,0,0,1-1.17.57,4.38,4.38,0,0,0-1.8.61,1.2,1.2,0,0,0-.47,0c-1.21.65-2.57,1-3.76,1.6S62.15,69.25,61,70a18.88,18.88,0,0,0-3.62,2.79,1.53,1.53,0,0,1-2.33.29c-.56-.36-.69-.17-.89.34a22.52,22.52,0,0,1-1.81,3.89A38.41,38.41,0,0,1,48,83.57c-.23.25-.42.54-.64.82a6.37,6.37,0,0,0,2.77.13c1.41,0,2.8.26,4.21.16a4.1,4.1,0,0,1,1.87.1c.65.24,1.31-.16,2-.14,1.33,0,2.67-.16,4-.24,1.16-.07,2.34,0,3.52,0a4,4,0,0,1,1.24.12A2,2,0,0,0,68,84.43a8.34,8.34,0,0,1,3.11-.14,16.26,16.26,0,0,1,1.62.21c1,.24,2.07.14,3.09.32a15.51,15.51,0,0,0,3.6.23c1.18-.06,2.34.22,3.51.18a1.26,1.26,0,0,1,.65.22,1.71,1.71,0,0,0,1.27.24,1,1,0,0,1,.48,0,21.29,21.29,0,0,0,5.12.77,66.26,66.26,0,0,1,16.33,3.31,31.09,31.09,0,0,0,3.08.71,3.75,3.75,0,0,1,1.62.58c.39.3,1.07.39.67,1.35a2.93,2.93,0,0,0,.57,2.28,5.35,5.35,0,0,1,.55,2.22c0,.29-.22.27-.38.23-1.36-.36-2.81-.4-4-1.21a3.65,3.65,0,0,0-1.12-.55c-2.93-.69-5.76-1.8-8.81-2a11.5,11.5,0,0,1-2.51-.55,48.73,48.73,0,0,0-7-1.25c-2.89-.45-5.79-.89-8.69-1.3a30.17,30.17,0,0,1-3.42-.44c-.61-.16-1.22.2-1.85.12-1.55-.2-3.09-.38-4.63-.55s-3.32-.43-5-.49c-3.78-.15-7.57-.21-11.35-.14-1.14,0-2.28-.15-3.41,0-2.12.2-4.27.07-6.38.38a19.27,19.27,0,0,1-3.13.1,5.14,5.14,0,0,0-1.91.27c-.09,0-.19.12-.26.1-1.86-.59-3.69,0-5.53.16a16.75,16.75,0,0,1-2.63.21c-2.39-.18-4.62.83-7,.88-4,.08-7.94,1-11.9,1.48a18.7,18.7,0,0,0-5.77,1.37A3.29,3.29,0,0,1,5.4,94a17.24,17.24,0,0,0-4.13.91c-.17.06-.45.3-.55,0-.23-.53-.87-.85-.69-1.59.13-.52.41-1.08,0-1.66a1.46,1.46,0,0,0,1.33,0C3.49,91.15,5.7,90.7,7.83,90a57.83,57.83,0,0,1,5.72-1.13,9.05,9.05,0,0,0,1.25-.39,2.92,2.92,0,0,1,.92-.3c2.5-.07,4.83-1,7.29-1.37,1.45-.2,3,.06,4.35-.34,2-.57,4-.36,6-.84a13.74,13.74,0,0,1,2.86-.36,24.24,24.24,0,0,0,3.19,0c.31,0,.84-.18,1.19.19.37-.42,1-.27,1.39-.75s1-1.12,1.42-1.73a1.39,1.39,0,0,1,.71-.47l-.43-.14c.83-.38,1.15-1.11,1.6-1.78a12.89,12.89,0,0,1,1.13-1.51,4.23,4.23,0,0,0,1-1.87,3.54,3.54,0,0,1,1.4-2.58,1.37,1.37,0,0,0,.41-.79,10,10,0,0,0,.78-2.77c0-.07,0-.18,0-.2,1-.54.38-1.55.69-2.28s.7-1.13.94-1.76a2.17,2.17,0,0,0-.38-2.29l-2.15-2.19c-.39-.32-.64-.88-1.3-.71-1.81.47-3.51,1.27-5.34,1.73a14.52,14.52,0,0,1-6.52.33,16.12,16.12,0,0,0-1.84-.16A8,8,0,0,1,30,62.42c-.68-.45-1.7-.31-2.09-1.22,0-.08-.2-.09-.31-.13-.46-.16-.45-.17-.76-.77-.06-.11-.23-.15-.33-.24a8.09,8.09,0,0,0-2.43-1.24c-.61-.21-1-.84-1.35-1.35-.11-.16-.49-.51.07-.76.13-.06-.15-.49-.33-.61-1.39-1-1.58-2.39-1.59-3.9,0-.17-.16-.54.28-.53-.1-.13.36-.58-.26-.44-.12,0-.1-.22-.13-.35a36.28,36.28,0,0,1-.29-5A18.06,18.06,0,0,0,20,42c-.18-.63-.69-1.31-.85-1.91a8,8,0,0,0-1.46-2.64,4.87,4.87,0,0,0-2.68-2c-1-.27-1-.93-.32-1.67A2.91,2.91,0,0,1,16.76,33a6.2,6.2,0,0,0,2.54-.65c.29-.15.58-.15.75.13,1.07,1.77,3,2.43,4.67,3.23q4.08,1.94,8.33,3.57a27.15,27.15,0,0,1,4.06,2.13c1.69,1,2.92,2.5,4.5,3.62a7.39,7.39,0,0,1,2.18,2.3c.28.48.79.77,1.13,1.24a4.67,4.67,0,0,1,.87,1.74,10.93,10.93,0,0,0,.83,2.16,6.74,6.74,0,0,1,.63,2c-.28.07-.25-.32-.51-.22A2.33,2.33,0,0,0,48,56a31.8,31.8,0,0,1,2.76,1.73c.89.58,1.59-.1,2.32-.38.49-.18.35-.73.33-1.15-.08-1.56,0-3.12-.13-4.69,0-.61-.47-1.2-.14-1.86.12-.24-.23-.28-.42-.35-.88-.33-1.77-.66-2.65-1a5.75,5.75,0,0,1-1.11-.67c-.44-.3-.9-.77-1.58-.51-.2.08-.42-.16-.57-.34-.62-.74-1.29-1.44-1.92-2.17a10.73,10.73,0,0,1-2.31-4.21,9.82,9.82,0,0,0-.51-1.2,26.76,26.76,0,0,1-1.16-4,13.55,13.55,0,0,1-.11-3.37,12.69,12.69,0,0,1,1.54-5.12A10.76,10.76,0,0,1,45,23.44a26.18,26.18,0,0,1,11.53-6.12,12.29,12.29,0,0,1,5.36.08,22.92,22.92,0,0,1,5.55,2c.52.24,1.14.43,1.28,1.14,0,.08.1.19.17.2,1.46.25,1.69,1.68,2.37,2.62a5.5,5.5,0,0,1,.62,3.09,17.75,17.75,0,0,1-.53,4.29,2.57,2.57,0,0,0-.09,1.58.44.44,0,0,1-.06.33c-.53.79-.61,1.78-1.16,2.57a2.3,2.3,0,0,0-.63.9,8.3,8.3,0,0,1-5.5,4.52c-.26.07-.51.16-.7-.09a.5.5,0,0,1,.12-.69c1.33-1.23,1.65-3,2.5-4.52a14,14,0,0,0,1.51-4.79,8.94,8.94,0,0,0-.72-6.15c-1.52-2.62-4.13-3.56-6.9-4.2A13.93,13.93,0,0,0,54,19.94a8.62,8.62,0,0,0-5,2.11,10.71,10.71,0,0,0-3.55,9.33A21.76,21.76,0,0,0,47,37.1c.11.33.19.67.32,1a9.45,9.45,0,0,0,5.28,5.75c.21.09.44.24.63,0s.1-.44-.11-.6-.12-.34-.12-.51c0-2.9,0-5.79-.12-8.68a3.49,3.49,0,0,0-.28-1.88.78.78,0,0,1,.18-.9,1.85,1.85,0,0,1,.88-.39,11.11,11.11,0,0,1,3.15-.28,1.13,1.13,0,0,1,1.35,1.17c0,.42-.23.75-.25,1.15-.09,1.58-.11,3.16-.25,4.74-.18,2.1-.13,4.22-.17,6.33,0,1,0,1,1,1.06.73,0,.92.4.61,1a2.82,2.82,0,0,1-1,1.15,1.84,1.84,0,0,0-.46,1.54c.13,2.83.18,5.66.12,8.49,0,1.59-.31,3.18-.45,4.78,0,.4-.33.84.12,1.21,0,0,0,.14,0,.18-.94,1.07-.58,2.49-1.11,3.79a6.2,6.2,0,0,0,2-.82,12.19,12.19,0,0,1,2.62-1.27c.52-.16.89-.63,1.52-.59.37,0,.3-.34.17-.57a11,11,0,0,1-1.25-4.51,3.75,3.75,0,0,1,.41-2.33A5.31,5.31,0,0,0,62,56.06a9,9,0,0,1,1.46-2.41,10.8,10.8,0,0,0,.67-1.26A15.31,15.31,0,0,1,67,48.55c.35-.35.34-.35.31-.68l-.08-.08c.33-.32.54-.79,1.14-.71.24,0,.4-.2.54-.39a1.45,1.45,0,0,1,.7-.54c.63-.24.65-.36.82-1.14a.79.79,0,0,1,.73-.53c.72,0,.72,0,.84-.62a1.58,1.58,0,0,1,1-.56.81.81,0,0,0,1.05-.73c0-.11,0-.21.08-.21.88-.1,1.34-.86,2-1.27,1.38-.84,2.87-1.48,4.23-2.35,3.13-2,6.62-3.48,9.25-6.21A5.69,5.69,0,0,0,91.56,28a1.41,1.41,0,0,1,.14-.94,2,2,0,0,1,1.61-.48,7.17,7.17,0,0,1,2,1.58,2.94,2.94,0,0,0,.82.71.45.45,0,0,1,.31.48,7.29,7.29,0,0,1-.7,3.21,1.52,1.52,0,0,0-.21,1.36c.14.33-.08.63-.09,1a31.45,31.45,0,0,1-.25,3.62,8.47,8.47,0,0,1-.19,2.18c-.3.41.24,1-.32,1.36a1.07,1.07,0,0,0,.11.22,1.15,1.15,0,0,1,0,1.37.69.69,0,0,0,.15.89c.33.24.25.52.25.86,0,.74-.45,1.46-.19,2.21a3.39,3.39,0,0,1,.12,1.58,8.36,8.36,0,0,0-.1,1.87,11.76,11.76,0,0,1-.92,4.7,25.26,25.26,0,0,1-2.14,4.21c-.64,1.18-1.6,2.18-2.31,3.35a10.13,10.13,0,0,1-1.82,2c-.89.84-1.68,1.78-2.58,2.59-.58.51-1.29.93-1.85,1.45a10.24,10.24,0,0,1-4.87,2.44M26.87,54.29a7,7,0,0,0,1.58,1.92,18.42,18.42,0,0,0,10,4.59,23.41,23.41,0,0,0,4.5.27,10.65,10.65,0,0,0,1.85-.3c.31-.07.74-.4.45-.67-.51-.46-.75-1.18-1.53-1.41a24.38,24.38,0,0,0-2.37-.79A39.43,39.43,0,0,1,34.91,56a16.47,16.47,0,0,1-6.65-5c-.57-.69-1.16-1.35-1.74-2,0-.15,0-.28.19-.28s.38,0,.21-.25c-.28-.37.06-.59.14-.86s1.21-1,1.35-.88c.81.64,2,.42,2.71,1.31.32.43.93.16,1.3.52.74.72,1.68,1.2,2.37,2,.1.11.22.27.36.31,1,.26,1.66,1.3,2.75,1.47a.46.46,0,0,1,.18.1,11.29,11.29,0,0,0,4,1.79c.12,0,.26.15.38,0s0-.28-.05-.39c-.25-.47-.48-.95-.77-1.39a23.89,23.89,0,0,0-5-5.08,10,10,0,0,1-2.09-1.7,7.43,7.43,0,0,0-2.62-2,33.14,33.14,0,0,0-6.11-3,1.49,1.49,0,0,0-.87-.35,20.84,20.84,0,0,1,.41,5.1,27.52,27.52,0,0,0,.24,5.44A8,8,0,0,0,26.87,54.29Z"/><path class="cls-1" d="M20.64,110.32c0,2.11,0,4.23,0,6.34,0,.5-.13.64-.62.61a17,17,0,0,0-2,0c-.46,0-.62-.11-.55-.57a6.37,6.37,0,0,0-.05-2,3.52,3.52,0,0,0-3.7-3.18c-2.14-.07-1.76-.36-1.82,1.62-.07,2.42,0,4.83,0,7.25,0,.38.12.47.47.46,1,0,2,0,3.06,0a5.68,5.68,0,0,0,2.58-.19c.48-.23,1.12.12,1.71.08,3.42-.26,5.27-2.35,5.47-5.06.06-.88.26-1.74.37-2.62,0-.31.11-.44.46-.43.74,0,1.48,0,2.23,0,.26,0,.48,0,.51.39.07,1.09.17,2.17.28,3.26a21.18,21.18,0,0,1-.1,4.36,13.61,13.61,0,0,0,.07,2.78c.11,1-.11,1.18-1.09,1.15-.61,0-1.21-.06-1.81-.11-2.58-.24-5.13.2-7.7.24a11.54,11.54,0,0,1-3.31-.33,5.92,5.92,0,0,0-2.14,0,6.11,6.11,0,0,1-3.09-.15,1.26,1.26,0,0,0-.55,0c-2.43.2-4.86,0-7.29.19-.43,0-.63-.07-.74-.49-.19-.64-.42-1.27-.67-1.9s0-.76.49-.89a6.45,6.45,0,0,1,1.51-.2l1.32,0A1.37,1.37,0,0,0,5.24,120c.16-.39.35-.76.52-1.13,0-.06.1-.15.08-.18-.61-1.14-.18-2.35-.2-3.51-.06-3.42,0-6.83,0-10.24,0-.54.18-1.12.17-1.61a5.37,5.37,0,0,0-.52-2.54c-.21-.37-.7-.32-1.08-.35-.81-.07-1.62-.1-2.43-.14-.47,0-.78-.12-.68-.73a4.38,4.38,0,0,0-.25-2.06c-.15-.5,0-.64.49-.68a18.54,18.54,0,0,1,3.41-.09,25.44,25.44,0,0,0,4.86-.1,58.6,58.6,0,0,1,8.69.11,21.82,21.82,0,0,0,4.71-.2,10.78,10.78,0,0,1,2.78,0,9.33,9.33,0,0,0,2.36,0c.54-.08.69.24.66.61-.11,1.67.17,3.33.13,5,0,.88-.13,1.76-.22,2.64a10,10,0,0,0,.18,1.73,5.69,5.69,0,0,1,0,.83c-.09.81-.28,1-1.09,1a13.6,13.6,0,0,1-2-.09.53.53,0,0,1-.52-.57,17.28,17.28,0,0,0-.35-3.59,7.29,7.29,0,0,0-2.71-3.57.8.8,0,0,0-.38-.15,29.81,29.81,0,0,0-7.25-.34,6.76,6.76,0,0,1-1.74,0c-.67-.11-.74.26-.75.73,0,.77,0,1.53,0,2.3-.06,1.6-.19,3.19-.16,4.8,0,.47.29.63.59.44.64-.41,1.35-.22,2-.38.29-.07.6-.08.89-.15a2,2,0,0,0,1.82-2.19c0-.58,0-1.16.05-1.74,0-.36.13-.58.58-.55a15.57,15.57,0,0,0,2.16,0c.5,0,.56.18.56.6,0,2.14,0,4.27,0,6.41"/><path class="cls-1" d="M20.25,142.76c0,2.05,0,3.44-.11,4.83,0,.4-.19.53-.53.56a24.63,24.63,0,0,1-2.85,0c-.45,0-.38-.29-.36-.58a11.64,11.64,0,0,0,0-3.12,1.88,1.88,0,0,0-1.78-1.74c-.79-.12-1.58-.06-2.36-.14-.23,0-.34,0-.34.27,0,2.64-.18,5.29.43,7.9a1.34,1.34,0,0,0,1.38,1.07c.69,0,1.39,0,2.08,0s.84.17.75.77a3.24,3.24,0,0,0,0,.69c.13,1.42-.65,2.15-2.08,2a59.09,59.09,0,0,0-8-.4c-1.77.08-3.52-.19-5.28-.08-.12,0-.29,0-.29-.12,0-.87-.67-1.57-.63-2.47,0-.57.22-.77.8-.72a23.26,23.26,0,0,0,2.64.19c1.25,0,1.41-.14,1.5-1.37.31-4.14.36-8.29.37-12.44a17.83,17.83,0,0,0-.31-2.62,5.94,5.94,0,0,1,0-1.52c.24-2-.9-3.16-2.94-2.94C.73,131,.73,131,.86,129.39c.2-2.36.31-2.47,2.62-2.47,1.33,0,2.65,0,4,0,1.06,0,2.11-.22,3.18-.18,3.43.11,6.86.45,10.29.34a57,57,0,0,1,5.7.16c.66,0,.79.33.82.88.1,2.55,0,5.1-.17,7.65-.05.93-.1,1.86-.11,2.78,0,.52-.16.77-.73.74-.83,0-1.67-.06-2.5,0-.33,0-.46-.11-.48-.43a5.43,5.43,0,0,1,.06-2.34c0-.12.1-.25,0-.32-.54-.4-.46-1-.6-1.57a3.76,3.76,0,0,0-2.66-2.77,16.66,16.66,0,0,0-4.65-.78c-1,0-2.09,0-3.13,0-.3,0-.45,0-.48.39a43.17,43.17,0,0,0-.3,6.73.64.64,0,0,0,.58.68,3.6,3.6,0,0,0,4.59-3.56c0-1.59,0-1.59,1.6-1.36,1.42.21,1.46.21,1.53,1.64.12,2.62.19,5.24.26,7.2"/><path class="cls-2" d="M72.8,69.38l-.29-.15c0-.1.19-.35,0-.27-.66.23-.54-.24-.58-.61-.32.1-.63.18-.93.26s-.37-.13-.54-.24,0-.29,0-.43.16-.24.18-.37c.07-.37.17-.71-.48-.67-.46,0-1.06.14-1.33-.5a4.38,4.38,0,0,1,1.8-.61,1.91,1.91,0,0,0,1.17-.57C73,64.28,74.47,63.9,75.7,63c.64-.46,1.22-1,1.85-1.43A5.67,5.67,0,0,1,78.72,61c.41-.17.83-.33.8-.88a.2.2,0,0,1,.15-.2A7,7,0,0,0,82,57.66a10.92,10.92,0,0,1,1.93-2c.31-.26.12-.56.15-.83s0-.42.2-.52c.89-.42,1.18-1.33,1.63-2.08a1.61,1.61,0,0,0,0-1.25,1.14,1.14,0,0,1,0-.79c.06-.2.38-.44.16-.59a1.13,1.13,0,0,0-.93-.29,4.14,4.14,0,0,0-2.19,1.32,51.78,51.78,0,0,1-9.62,8.17,21.64,21.64,0,0,1-5.89,3,3,3,0,0,1,.44-2.5,5,5,0,0,0,.76-1.68,5.84,5.84,0,0,1,1.06-2.22,7.07,7.07,0,0,0,1.26-2.09,8.16,8.16,0,0,1,1.68-2.48c.1-.13.31-.38.44-.25.35.36.35,0,.37-.17a2.45,2.45,0,0,1,1.17-1.65c.43-.27.84-.58,1.26-.86a26.06,26.06,0,0,0,2.56-1.8c.78-.7,1.85-.74,2.68-1.36a13.59,13.59,0,0,0,2.22-1.51,3.08,3.08,0,0,1,.92-.59,9.24,9.24,0,0,0,2.34-1.14,5.79,5.79,0,0,1,1.5-1.21,8.22,8.22,0,0,0,1.25-.87c.66-.5,1.11-1.35,2.09-1.37.06,1.36.11,2.72.19,4.08q.18,3.06.41,6.1c.31,4-1.08,7.5-3.27,10.75a35.52,35.52,0,0,1-8.9,9.15,10.86,10.86,0,0,1-4.28,1.9,1.68,1.68,0,0,1-1.28-.1c0-1.1,0-1.12-1.08-.75l-.39.14"/><path class="cls-2" d="M59.67,20.23c2.77.64,5.38,1.58,6.9,4.2a8.94,8.94,0,0,1,.72,6.15,14,14,0,0,1-1.51,4.79c-.85,1.5-1.17,3.29-2.5,4.52a.5.5,0,0,0-.12.69c.19.25.44.16.7.09a8.3,8.3,0,0,0,5.5-4.52,2.3,2.3,0,0,1,.63-.9,5.86,5.86,0,0,1-.86,2.87c-.7,1-1.39,2-2.06,3.06-.22.34-.43.57-.89.44s-.6-.07-.71.45c-.16.77-.58,1-1.47.9l-.06-.07,0,0L64,43c0,.28.32.31.46.48s.56.23.38.44-.26.62-.69.79a2.26,2.26,0,0,1-2-.08.42.42,0,0,0-.45,0A1.59,1.59,0,0,1,60.31,47c-.76.09-1.51.15-2.27.23a2.82,2.82,0,0,0,1-1.15c.31-.65.12-1-.61-1-1-.06-1-.06-1-1.06,0-2.11,0-4.23.17-6.33.14-1.58.16-3.16.25-4.74,0-.4.27-.73.25-1.15a1.13,1.13,0,0,0-1.35-1.17,11.11,11.11,0,0,0-3.15.28,1.85,1.85,0,0,0-.88.39.78.78,0,0,0-.18.9,3.6,3.6,0,0,1,.28,1.88C53,37,53,39.85,53,42.75c0,.17-.06.37.12.51s.3.38.11.6-.42.07-.63,0a9.45,9.45,0,0,1-5.28-5.75c-.13-.32-.21-.66-.32-1-.16-.7.22-1.47-.28-2.15a.41.41,0,0,1,.06-.57c.13-.12.14-.24,0-.35-.55-.51-.17-1.12-.15-1.67s.51-1,.54-1.64c.06-1,.59-1.89.68-2.88,0-.42,0-.83.46-1.07.14-.07.28-.38.17-.53-.36-.47-.18-.71.24-1s.28-.81.79-.89c1-.16,1.4-1.25,2.35-1.47,0,0,0-.08.07-.12a1.57,1.57,0,0,1,.89-.73,16.19,16.19,0,0,1,2.83-.94c1.25-.27,2.42-1.2,3.82-.72,0,0,.14-.1.21-.15"/><path class="cls-1" d="M95,137.6a12.57,12.57,0,0,1,4.68-2.4,16.5,16.5,0,0,1,1.84-.33c.15,0,.63-.32.48.29,0,.05.26.09.28,0,.11-.52.48-.32.76-.27a5.61,5.61,0,0,1,4.47,5.47c.13,2.3-.06,4.59,0,6.89a10.48,10.48,0,0,0,.6,3.68,1.7,1.7,0,0,0,1.88,1.28,3.63,3.63,0,0,1,1.65.09c.56.25.08,1,.36,1.49a1.15,1.15,0,0,1,.09.33c.46,1.65.35,1.77-1.39,1.87a43.81,43.81,0,0,1-5.12-.42c-.44,0-.91-.2-1.25.31-.12.18-.44.08-.67.07-1.22-.09-2.45-.24-3.68-.23a.43.43,0,0,1-.51-.34,11.58,11.58,0,0,1-.26-3.16c0-.31.2-.42.52-.41.65,0,1.3,0,2,0,.36,0,.57-.11.56-.57,0-2.19.21-4.36.25-6.54a15.42,15.42,0,0,0-.29-3.45c-.06-.29-.3-.61,0-.9.11-.09,0-.23-.09-.27-1.12-.45-2.07-1.33-3.37-1.34a4.14,4.14,0,0,0-3.78,3.19,7.17,7.17,0,0,0-.09,1.38,30.63,30.63,0,0,1-.28,5.9,1.48,1.48,0,0,0,0,.21c-.07,2,.33,2.4,2.27,2.47,1.26,0,1.26,0,1.34,1.33,0,.46,0,.93.08,1.38.11.71-.25.83-.84.76-.78-.1-1.54-.29-2.34-.32-3-.09-6.08.16-9.11.15-.54,0-.78-.15-.76-.68,0-.19,0-.37,0-.56-.07-1.54.11-1.75,1.66-1.82a1.48,1.48,0,0,0,.21,0c.57-.15,1.43.14,1.69-.37a3.58,3.58,0,0,0,.41-2.75c-.07-.21-.28-.48.19-.53.12,0,.1-.19.1-.3-.11-2.87-.08-5.73,0-8.6a21.86,21.86,0,0,0-.17-3.53,12,12,0,0,1,0-3c.16-1.22-.35-1.82-1.56-2-.68-.12-1.54.06-2-.41s-.15-1.32-.24-2c-.15-1.06-.07-1.08,1-1.21,2.58-.32,5.15.07,7.72,0,.4,0,.62.12.51.62a14.78,14.78,0,0,0,0,3.39c0,.42,0,.84,0,1.25,0,.07,0,.18,0,.2.64.52,0,1-.07,1.45a1,1,0,0,0,0,.41c.34.93.16,1.94.48,2.94"/><path class="cls-1" d="M94.49,107.81a1.38,1.38,0,0,0,.79-.69c.43-.77,1.37-1.11,1.63-2,0-.1.27-.16.42-.2a20.66,20.66,0,0,1,3.39-.72,6.73,6.73,0,0,1,6.86,4.49,6.92,6.92,0,0,1,.37,4.22,27.87,27.87,0,0,0-.35,3.56s0,.11,0,.13c.65.47.13,1.12.26,1.68a8.43,8.43,0,0,1,.11,2c0,.84.25,1.2,1.11,1.3.6.07,1.21,0,1.81.06.32,0,.71-.22.92.23a1.22,1.22,0,0,1,0,1.38.88.88,0,0,0-.15.94c.12.48-.06.66-.54.7a22,22,0,0,1-4.93.06,2.37,2.37,0,0,0-.75,0c-.47.08-1,.34-1.41-.16-.06-.07-.26,0-.39,0a40.26,40.26,0,0,0-4.11.07c-.35.05-.4-.13-.42-.38,0-.7-.15-1.39-.13-2.08,0-.47.38-.66.84-.68a8.42,8.42,0,0,0,1.81-.08c.41-.11.63-.27.6-.76a8.36,8.36,0,0,1,.1-1.87c.22-1.29-.35-2.51-.29-3.79s.15-2.36.18-3.54c0-.9.2-1.94-.61-2.71-.18-.17-.35-.37-.55-.53s-.55-.53-1-.24c-.2.12-.55,0-.82,0a3.63,3.63,0,0,0-3.53,1.91,6,6,0,0,0-1,3.69c.13,1.06-.08,2.1.14,3.14.07.32-.1.58-.14.88a20.6,20.6,0,0,0,.19,3.33c0,.29.27.4.53.48a5.58,5.58,0,0,0,1.73.09c.22,0,.49-.09.53.26a6.1,6.1,0,0,1-.08,2.69.55.55,0,0,1-.69.41,28.38,28.38,0,0,0-6-.15,22,22,0,0,1-4.93-.25c-.45-.09-.69-.14-.53-.72a4.08,4.08,0,0,0,.06-1.52c-.07-.65.21-.89.8-.92l1.46-.06a2,2,0,0,0,1.75-1.86c0-2-.28-3.94-.11-5.91a39.22,39.22,0,0,0-.13-6.59,12.43,12.43,0,0,1,.15-3,6,6,0,0,0-.3-2.78,1.87,1.87,0,0,0-1.27-1.22,8.44,8.44,0,0,0-2-.15c-.36,0-.54-.12-.5-.54a16.26,16.26,0,0,1,0-2.21c.12-.55.36-.78.95-.69,2,.3,4,.07,6.05.22.71.06,1.42.15,2.14.2.44,0,.49.31.4.63-.5,1.84-.17,3.69-.11,5.54a6.4,6.4,0,0,1,0,1.45,22.93,22.93,0,0,0-.2,3.26"/><path class="cls-1" d="M42.24,122.45a9.09,9.09,0,0,1-9.61,2,3.94,3.94,0,0,1-2.8-3.83,7.79,7.79,0,0,1,.37-3.23,4.58,4.58,0,0,1,2.62-2.63,30,30,0,0,1,4.53-1.29,10.36,10.36,0,0,0,3.59-1.43,2.88,2.88,0,0,0-.22-4.75,6.3,6.3,0,0,0-6.27.43,2.19,2.19,0,0,1,1.53.56,2.28,2.28,0,0,1,.71,1.47c.22,2.12-1.09,3.21-3.34,2.82a3.07,3.07,0,0,1-2.43-4.19A5,5,0,0,1,34.6,105a13.34,13.34,0,0,1,9,.16,5.23,5.23,0,0,1,3.54,5.21c0,3-.23,5.89-.13,8.83a12,12,0,0,0,.16,1.8c.07.43.3.83.79.85s.73-.36.85-.78a11.23,11.23,0,0,0,.24-3.32c0-.47.1-.68.61-.63a5.23,5.23,0,0,0,1.25,0c.77-.12.92.24.87.92-.06.93,0,1.85-.14,2.78-.53,3.64-3.21,4.58-6,4.17a3.85,3.85,0,0,1-3.36-2.54m-.13-6.71v-1c0-.28,0-.48-.38-.26A25.82,25.82,0,0,1,38.11,116a4.83,4.83,0,0,0-2,1.29,2.91,2.91,0,0,0-.52,3.17,2.45,2.45,0,0,0,2.51,1.39,3.63,3.63,0,0,0,3.14-2.07A8.67,8.67,0,0,0,42.11,115.74Z"/><path class="cls-1" d="M46.43,146a15.76,15.76,0,0,1,.69-4.87,8,8,0,0,1,4.13-5,9.49,9.49,0,0,1,8-.65,9.79,9.79,0,0,1,6,9.5c-.07.91-.28,1.09-1.2,1.08a20.77,20.77,0,0,0-2.08.08,12.51,12.51,0,0,1-3.81-.18,13.28,13.28,0,0,0-3.88,0,6.15,6.15,0,0,1-1.66,0c-.48-.1-.57.13-.5.53s.14.53.21.8a2,2,0,0,1,.18.8,2.23,2.23,0,0,0,1.08,2.32c1.22,1,2.4,2.06,4.2,1.64a4.35,4.35,0,0,0,3.55-3.39.86.86,0,0,1,1-.76c.81,0,1.61.11,2.42.13.31,0,.34.13.32.39A8,8,0,0,1,62.62,154a6.11,6.11,0,0,1-4,1.48,27.69,27.69,0,0,1-5.9-.24,7,7,0,0,1-4.35-2.59A9.82,9.82,0,0,1,46.43,146m9.89-3.51h1.87c1,0,1,0,.92-1a3.7,3.7,0,0,0-2.06-2.95,3.59,3.59,0,0,0-4.85,3.25c0,.4.11.46.45.48C53.87,142.42,55.09,142.54,56.32,142.53Z"/><path class="cls-1" d="M66.36,151.18c0-1.11,0-2.23,0-3.34,0-.36.09-.53.47-.47H67a6.77,6.77,0,0,1,2.21.06c.68.25.56,1.21.88,1.83a6.51,6.51,0,0,0,7.25,3.39,3,3,0,0,0,1.7-1,1.26,1.26,0,0,0-.06-1.91,5.07,5.07,0,0,0-1.68-1.09,48.63,48.63,0,0,0-7.27-2.28,5.12,5.12,0,0,1-2.19-1c-1-.86-1-2-1.22-3.08a5.13,5.13,0,0,1,1.27-4.82,7,7,0,0,1,2.46-1.76,10.33,10.33,0,0,1,6.72-.61,3.79,3.79,0,0,1,2.61,1.42.53.53,0,0,0,.53.28c.24-.05.22-.32.26-.52a3.45,3.45,0,0,0,.07-.55c0-.36.17-.5.55-.55,2.13-.31,2.21-.26,2.22,1.82,0,1.7,0,3.39,0,5.09,0,.35,0,.56-.47.51a5,5,0,0,0-1.58.23c-.44.1-.77,0-.91-.48-.8-2.72-2.75-3.92-5.46-4.14a6,6,0,0,0-1.59.12,2.28,2.28,0,0,0-1.91,1.79c-.06.62.64,1.44,1.65,1.76,1.35.43,2.72.77,4.07,1.16a14.76,14.76,0,0,1,5.31,2.32,5.67,5.67,0,0,1-1.33,9.49,13,13,0,0,1-8.27.37A8.8,8.8,0,0,1,70.54,154c-.39-.24-.68-.28-.85.21a1.14,1.14,0,0,1-1.43.82c-.59-.07-1.37.19-1.76-.1s-.11-1.13-.14-1.72,0-1.35,0-2"/><path class="cls-1" d="M79.44,100.79a14.2,14.2,0,0,0,.16,3.32.65.65,0,0,0,.75.61,34.87,34.87,0,0,1,3.81.28,1.15,1.15,0,0,1,1.14,1.15,8.53,8.53,0,0,0,.13,1.59c.11.44-.1.62-.57.61-1.39,0-2.78.19-4.17.09-.45,0-.73,0-.74.64,0,2.62-.44,5.22-.51,7.84a19,19,0,0,0,.17,3.2,1.52,1.52,0,0,0,2.1,1c.19-.1.21-.3.26-.47a6.5,6.5,0,0,0,.2-3.36c-.14-.58,0-1.19-.19-1.79-.09-.27.22-.38.43-.45a4.8,4.8,0,0,1,2.73.18c.2,0,.19.23.2.39a17.76,17.76,0,0,1-.33,6c-.59,2.36-2.37,3.23-4.53,3.6a7.28,7.28,0,0,1-3.7-.26A3.66,3.66,0,0,1,75,123.46c-1.28-1.8-1-3.87-1.07-5.84-.18-2.92.06-5.85.12-8.77,0-.49-.09-.74-.62-.72a2.65,2.65,0,0,1-.48-.07c-.54-.06-1.45.1-1.56-.23a8.85,8.85,0,0,1-.14-2.48c0-.25.2-.2.35-.22a7.55,7.55,0,0,0,1.29-.24A2.7,2.7,0,0,0,74.6,103c.53-1.77,1.26-3.5,1.06-5.41a.28.28,0,0,1,.18-.33c.19-.08.48-.07.27-.42,0-.07.07-.18.17-.16.77.14,1.53-.1,2.29,0,.5,0,.69.28.77.78a28.67,28.67,0,0,1,.1,3.34"/><path class="cls-1" d="M61,107.64a20.86,20.86,0,0,1,2.16-2.3,4.89,4.89,0,0,1,5.2-.43A4.26,4.26,0,0,1,71,108.85a7.67,7.67,0,0,1,0,1.66,3,3,0,0,1-2.39,2.56,3.08,3.08,0,0,1-3.36-1.22,2.66,2.66,0,0,1-.64-2.48,2.86,2.86,0,0,1,1.73-2.12,3,3,0,0,0-2.44.24A3.33,3.33,0,0,0,62,109.92a2.63,2.63,0,0,1-.39.81c-.39.67-.83,1.25-.24,2.14.28.44,0,1.22,0,1.85-.06,1.52-.17,3-.21,4.58a1.76,1.76,0,0,0,2.35,1.79,3.56,3.56,0,0,1,1-.21c.4,0,.64.2.64.65a14.71,14.71,0,0,0,.12,2.57c.07.45-.25.35-.48.36H61.16c-2.9,0-5.8,0-8.7-.08-.41,0-.58-.09-.56-.54s0-1.11,0-1.67c0-.41.07-.63.57-.61s1.11-.13,1.66-.1.88-.29,1-.85a15.78,15.78,0,0,0,.56-5.09c-.1-1.91,0-3.81-.07-5.72a1.71,1.71,0,0,0-1.8-1.76,8.35,8.35,0,0,1-1.73,0c-.21,0-.4,0-.4-.35,0-.76,0-1.53,0-2.29,0-.5.18-.81.81-.73a20.66,20.66,0,0,0,3.6.1c.76,0,1.58-.1,2.36-.22a7.1,7.1,0,0,1,2.06.26c.29,0,.23.24.25.4.05.76.1,1.52.16,2.38"/><path class="cls-1" d="M36.71,138l1.12-1.43c1.45-1.84,3.41-2.17,5.57-1.83a2.37,2.37,0,0,1,1.54,1c.41.53,1.1.79,1.5,1.39a3.47,3.47,0,0,1,.29,3.9,4,4,0,0,1-3.85,2.26,2.87,2.87,0,0,1-2.3-1.82,3.24,3.24,0,0,1,1.1-3.36c.17-.12.35-.21.66-.4a3.94,3.94,0,0,0-3.84,1.16,7,7,0,0,0-1.78,5.93,26.56,26.56,0,0,1,.24,4.71c0,.24,0,.47,0,.7,0,1.16.21,1.35,1.3,1.56.66.13,1.32.24,2,.33,1.12.15,1.49.63,1.29,1.7a1.55,1.55,0,0,1,0,.21c-.26,1.3-.26,1.26-1.6,1.2-1.69-.07-3.37-.05-5.06-.1-2.2-.06-4.4-.16-6.6-.22-.36,0-.5-.14-.5-.48,0-.76,0-1.53,0-2.29,0-.34.22-.29.42-.29a7.7,7.7,0,0,0,1.73,0,1.64,1.64,0,0,0,1.23-.91,3.18,3.18,0,0,0,.36-2.6,1,1,0,0,1,0-.61,3.08,3.08,0,0,0,.06-1.38,29.83,29.83,0,0,1,0-5.9c0-1.52-.44-2-2-2s-1.47-.06-1.49-1.5v-.7c0-1.09.29-1.29,1.33-1.06A1.75,1.75,0,0,0,31,135a.34.34,0,0,1,.26-.06c1.63.3,3.29,0,4.92.24.48.08.67.19.58.74a13,13,0,0,0,0,2.09"/><path class="cls-2" d="M3,179.27c0-2.53,0-5.06,0-7.59,0-.6.18-.74.75-.72,1.69.06,3.39-.07,5.08.08a5,5,0,0,1,3.81,7.66A3,3,0,0,1,11.27,180c-.42.17-.41.38-.25.74.9,2.08,1.76,4.18,2.66,6.27.21.48.17.65-.4.62a20.74,20.74,0,0,0-2.23,0,.7.7,0,0,1-.8-.56c-.76-1.91-1.55-3.82-2.33-5.73a1.4,1.4,0,0,0-1.58-.44c-.19.16-.1.4-.1.59,0,1.84,0,3.67,0,5.51,0,.47-.12.66-.62.63a14.1,14.1,0,0,0-1.95,0c-.6,0-.68-.21-.67-.72,0-2.53,0-5.06,0-7.59m4.43-1.12h.63a1.94,1.94,0,0,0,2-2.17c0-1.44-.61-2.24-1.91-2.33-.48,0-1,0-1.46,0s-.48.12-.48.48c0,1,0,1.91,0,2.86C6.24,178.15,6.24,178.15,7.45,178.15Z"/><path class="cls-2" d="M99.5,179.27c0-2.55,0-5.1,0-7.66,0-.52.14-.67.66-.65,1.53,0,3.07-.06,4.59.07,3.09.24,4.51,1.51,4.87,4.58a31.27,31.27,0,0,1,0,7.3c-.37,3.2-2.05,4.55-5.42,4.65-1.39,0-2.79,0-4.18,0-.46,0-.53-.18-.52-.58,0-2.57,0-5.15,0-7.73m3.21,0v4.45c0,1.06,0,1.06,1.09,1a2.44,2.44,0,0,0,2.69-2.61c0-.14,0-.28,0-.42,0-1.64,0-3.29,0-4.93,0-2.18-.85-3-3-3h-.21c-.46-.07-.59.12-.58.57C102.72,176,102.71,177.63,102.71,179.25Z"/><path class="cls-2" d="M85.89,179.25a36.69,36.69,0,0,1,.1-4.45,4.33,4.33,0,0,1,3.8-3.94,7.37,7.37,0,0,1,3.17.08,4,4,0,0,1,3.2,3.38,35.88,35.88,0,0,1,0,9.71A4.14,4.14,0,0,1,92,187.75a9,9,0,0,1-1.94,0c-2.62-.38-4-2-4.13-4.85-.05-1.21,0-2.42,0-3.62m7.29,0h-.05c0-1.35.05-2.7,0-4a1.57,1.57,0,0,0-1.43-1.62,1.93,1.93,0,0,0-2.58,2.06c0,2.39,0,4.78,0,7.17a3,3,0,0,0,.14.89,1.54,1.54,0,0,0,1.19,1.14c1.68.41,2.7-.33,2.75-2.05C93.2,181.64,93.18,180.45,93.18,179.27Z"/><path class="cls-2" d="M83.06,179.5c-.06,1.2.09,2.66-.1,4.12a4.4,4.4,0,0,1-4.25,4.12,9.09,9.09,0,0,1-2,0c-2.62-.39-4-1.85-4.1-4.78a64.31,64.31,0,0,1,0-7.73c.21-2.81,1.89-4.34,4.72-4.45a8.43,8.43,0,0,1,1.67.06c2.62.43,4,2.16,4,5.08,0,1.11,0,2.23,0,3.6m-7.29-.27c0,1.23,0,2.46,0,3.69s.45,1.74,1.32,2c1.69.41,2.73-.38,2.75-2.12,0-2.33,0-4.65,0-7a3.85,3.85,0,0,0-.11-.83,1.59,1.59,0,0,0-1.33-1.33c-1.62-.34-2.6.41-2.63,2.06C75.76,176.86,75.77,178.05,75.77,179.23Z"/><path class="cls-2" d="M67.41,186.21a4,4,0,0,1-4.09,1.51,4.38,4.38,0,0,1-4-4.47q-.15-4,0-8a4.42,4.42,0,0,1,4.56-4.47,11,11,0,0,1,1.52,0,4.84,4.84,0,0,1,4.21,5.26c0,.24-.11.32-.34.32H68.05a4,4,0,0,1-1.51-.06c-.43-.21-.17-.87-.31-1.32a1.78,1.78,0,0,0-2-1.41,1.65,1.65,0,0,0-1.74,1.71c0,2.64,0,5.29,0,7.93A1.68,1.68,0,0,0,64.33,185a1.91,1.91,0,0,0,2-1.79c.2-1.45.15-1.51-1.3-1.51-.92,0-.93,0-.92-.91,0-.55-.17-1.28.11-1.61s1.09-.11,1.66-.12c1.06,0,2.13,0,3.2,0,.37,0,.47.11.47.47,0,2.55,0,5.11,0,7.66,0,.34-.11.46-.44.43a2.67,2.67,0,0,0-.49,0,.77.77,0,0,1-1-.72c0-.18-.12-.35-.22-.64"/><path class="cls-2" d="M37.9,187.57c-1.46,0-1.46,0-1.79-1.43-.11-.52-.27-1-.35-1.55s-.26-.52-.66-.51c-1.09,0-2.18,0-3.27,0a.6.6,0,0,0-.7.56c-.18.81-.41,1.62-.6,2.43-.08.36-.23.55-.65.52a14.1,14.1,0,0,0-1.95,0c-.6,0-.61-.17-.48-.68,1.2-4.78,2.38-9.57,3.57-14.36.39-1.57.39-1.57,2-1.57a16.82,16.82,0,0,0,1.74,0c.61-.08.78.21.9.74q1.8,7.56,3.66,15.13c.17.68,0,.82-.62.75a5.89,5.89,0,0,0-.84,0M33.48,174.8h-.11c-.45,1.93-.88,3.87-1.37,5.8-.13.56,0,.69.54.65s1.3,0,2,0c.34,0,.46-.09.38-.44Q34.17,177.81,33.48,174.8Z"/><path class="cls-2" d="M16.35,179.25c0-2.55,0-5.1,0-7.65,0-.48.12-.65.62-.64q3.75,0,7.52,0c.48,0,.66.14.62.63a9.5,9.5,0,0,0,0,1.6c0,.55-.18.64-.68.63-1.41,0-2.83,0-4.24,0-.48,0-.65.12-.63.62,0,.85,0,1.71,0,2.57,0,.45.12.61.58.59,1,0,2,0,3,0,.57,0,.71.18.68.71a15.49,15.49,0,0,0,0,1.67c0,.36-.11.48-.48.47-1,0-2.09,0-3.13,0-.47,0-.66.09-.64.61,0,1,0,2.09,0,3.13,0,.52.19.6.64.6,1.51,0,3,0,4.53,0,.49,0,.65.14.62.62a16.83,16.83,0,0,0,0,1.74c0,.35-.09.5-.47.5q-4,0-8,0c-.49,0-.51-.22-.51-.6,0-2.57,0-5.15,0-7.73"/><path class="cls-2" d="M41.76,179.2c0-2.51,0-5,0-7.52,0-.6.19-.76.75-.72a12.15,12.15,0,0,0,1.81,0c.56-.05.69.16.69.7,0,4.11,0,8.22,0,12.32,0,.63.17.78.77.76,1.25-.05,2.51,0,3.76,0,.47,0,.6.13.58.58a16.83,16.83,0,0,0,0,1.74c0,.37-.05.54-.48.54-2.44,0-4.87,0-7.31,0-.55,0-.52-.29-.52-.66,0-2.57,0-5.15,0-7.72"/><path class="cls-1" d="M38.53,4.8c.78-.17,1,.35,1.21,1a2.76,2.76,0,0,1,.17,1.09,3.69,3.69,0,0,0,.82,2.66,20.82,20.82,0,0,1,1.79,3.32,9.71,9.71,0,0,0,1,1.62c.31.44.4.78-.13,1.14s-.86.8-1.37,1.12c-.77.48-1.16.51-1.73-.21A34.5,34.5,0,0,1,36,10.31a19.06,19.06,0,0,0-1.21-2,.84.84,0,0,1,0-1.07,6.4,6.4,0,0,1,2.33-1.9c.43-.22.76-.76,1.39-.51"/><path class="cls-1" d="M60.37,11.34c-.6.17-1.1-.24-1.58-.49s-.52-1-.62-1.61c-.21-1.23-.33-2.47-.5-3.7-.06-.42.39-.74.18-1.2a6.68,6.68,0,0,1-.28-2.52A1.1,1.1,0,0,1,58.38.66a8.54,8.54,0,0,1,4-.63c.64.05.87.34.8,1C63,2.8,63,4.59,62.82,6.35A4.81,4.81,0,0,1,62.25,9c-.18.22,0,.57,0,.9a1.48,1.48,0,0,1-1.89,1.43"/><path class="cls-1" d="M84.82,16.28c.64-.11,1.16-.07,1.49.66.2.45.19.8-.2,1a6.5,6.5,0,0,0-2.16,2,1.76,1.76,0,0,1-.4.37c-1.45.94-2.9,1.9-4.37,2.82a2.74,2.74,0,0,1-3.62-.61c-.39-.45-.76-.9-1.15-1.34a.66.66,0,0,1,.1-1.08,16.86,16.86,0,0,1,4.18-2.5c.82-.27,1.43-1,2.3-1.23.27-.07.46-.33.87,0s1-.1,1.44-.29a3.26,3.26,0,0,1,1.34-.22v0c-.22.2.09.27.1.41s-.12,0-.08.09.1,0,.15,0"/><path class="cls-1" d="M31.07,27.91a7.43,7.43,0,0,1-3.64-1.17c-.55-.3-1.25-.14-1.74-.59a.2.2,0,0,0-.18.06c-.15.17-.42.31-.56.26-.32-.11-.32-.36-.37-.65a4.24,4.24,0,0,1,.79-3.05c.21-.33.25-.73.54-1A.75.75,0,0,1,27,21.57a12.2,12.2,0,0,0,5.61,1.63,2.08,2.08,0,0,1,1.85,1.21c.35.69-.1,1.06-.24,1.54a3.16,3.16,0,0,1-3.11,2"/><path class="cls-2" d="M78.63,71.81a10.24,10.24,0,0,0,4.87-2.44c.56-.52,1.27-.94,1.85-1.45.9-.81,1.69-1.75,2.58-2.59a10.13,10.13,0,0,0,1.82-2c.71-1.17,1.67-2.17,2.31-3.35a25.26,25.26,0,0,0,2.14-4.21,11.76,11.76,0,0,0,.92-4.7,8.36,8.36,0,0,1,.1-1.87,3.39,3.39,0,0,0-.12-1.58c-.26-.75.17-1.47.19-2.21,0-.34.08-.62-.25-.86a.69.69,0,0,1-.15-.89,1.15,1.15,0,0,0,0-1.37,1.07,1.07,0,0,1-.11-.22c.56-.35,0-1,.32-1.36a48,48,0,0,1,.39,9.58,15.92,15.92,0,0,0,0,1.95c.14,1.7-.59,3.18-1.09,4.73-.35,1-.86,2-1.13,3.12a6.74,6.74,0,0,1-1.71,2.71c-.37.4-.48,1-.84,1.47-.73.94-1.61,1.74-2.42,2.61a27.71,27.71,0,0,1-3.72,2.84,11.05,11.05,0,0,1-2.87,1.7,6.85,6.85,0,0,1-3,.44"/><path class="cls-2" d="M34.18,63.53a16.12,16.12,0,0,1,1.84.16,14.52,14.52,0,0,0,6.52-.33c1.83-.46,3.53-1.26,5.34-1.73.66-.17.91.39,1.3.71l-.19,0c0,.82-.61,1.1-1.18,1.35a4.4,4.4,0,0,1-1.94.69c-.42,0-.69.28-1,.41-1.65.62-3.27.11-4.89,0-1.34-.12-2.67-.36-4-.47a2.37,2.37,0,0,1-1.76-.8"/><path class="cls-1" d="M78.31,36.25a17.11,17.11,0,0,1-3.38-.49c-1-.34-1.07-.59-.53-1.42a1.75,1.75,0,0,1,1.8-.78,16.76,16.76,0,0,1,3.32.33c1,.24,1,.26.63,1.18-.41,1.08-.57,1.18-1.84,1.18"/><path class="cls-2" d="M52.68,185.86c0-1.6,0-1.6,1.56-1.59.56,0,1.29-.18,1.62.1S56,185.46,56,186c0,1.54,0,1.54-1.5,1.54h-.07c-1.73,0-1.73,0-1.73-1.71"/><path class="cls-2" d="M113.15,184.26c1.59,0,1.59,0,1.59,1.57,0,.55.17,1.29-.11,1.61s-1.09.12-1.66.12c-1.48,0-1.48,0-1.48-1.46V186c0-1.7,0-1.7,1.66-1.7"/><polyline class="cls-1" points="84.64 15.84 84.63 15.81 84.65 15.82 84.64 15.84"/><path class="cls-1" d="M67.34,47.87c0,.07,0,.12-.11.08s0-.11,0-.16l.08.08"/><path class="cls-2" d="M25.86,40.69a33.14,33.14,0,0,1,6.11,3,7.43,7.43,0,0,1,2.62,2,10,10,0,0,0,2.09,1.7,23.89,23.89,0,0,1,5,5.08c.29.44.52.92.77,1.39.06.11.15.26.05.39s-.26,0-.38,0a11.29,11.29,0,0,1-4-1.79.46.46,0,0,0-.18-.1c-1.09-.17-1.71-1.21-2.75-1.47-.14,0-.26-.2-.36-.31-.69-.79-1.63-1.27-2.37-2-.37-.36-1-.09-1.3-.52-.68-.89-1.9-.67-2.71-1.31-.14-.11-1.26.62-1.35.88s-.42.49-.14.86c.17.21,0,.25-.21.25s-.21.13-.19.28l-.09.08c.06-1-.22-2-.15-3.07a14.7,14.7,0,0,0-.16-2.29,11.53,11.53,0,0,1-.26-3"/><path class="cls-2" d="M26.52,49c.58.67,1.17,1.33,1.74,2a16.47,16.47,0,0,0,6.65,5,39.43,39.43,0,0,0,6.44,1.94,24.38,24.38,0,0,1,2.37.79c.78.23,1,1,1.53,1.41.29.27-.14.6-.45.67a10.65,10.65,0,0,1-1.85.3,23.41,23.41,0,0,1-4.5-.27,18.42,18.42,0,0,1-10-4.59,7,7,0,0,1-1.58-1.92,3.23,3.23,0,0,0,0-1.85,19.4,19.4,0,0,0-.43-3.4l.09-.08"/><path class="cls-3" d="M64,43l-.07-.06,0,0L64,43l0,0"/><path class="cls-3" d="M84.82,16.28s-.14,0-.15,0,0-.08.08-.09l.07.05"/></g></g></svg>