<svg xmlns="http://www.w3.org/2000/svg" viewBox="0 0 240 350" role="img" aria-label="Gen V logo">
  <defs>
    <path id="gen-arc" d="M 34 74 A 86 86 0 0 1 206 74" fill="none" />
  </defs>
  <g fill="#5B9424">
    <text font-family="Arial Rounded MT Bold, Nunito, system-ui, sans-serif" font-size="36" font-weight="800" letter-spacing="3">
      <textPath href="#gen-arc" startOffset="50%" text-anchor="middle">GEN</textPath>
    </text>
    <path
      d="M 58 104 C 58 104 72 118 84 188 C 96 252 108 268 120 268 C 132 268 144 252 156 188 C 168 118 182 104 182 104 C 182 104 166 104 154 176 C 142 244 132 256 120 256 C 108 256 98 244 86 176 C 74 104 58 104 58 104 Z"
      fill="#5B9424"
    />
    <text x="178" y="252" font-family="Arial, Helvetica, sans-serif" font-size="13" font-weight="700">™</text>
    <text x="120" y="296" text-anchor="middle" font-family="Georgia, 'Times New Roman', serif" font-size="17" font-style="italic">true</text>
    <text x="120" y="318" text-anchor="middle" font-family="Georgia, 'Times New Roman', serif" font-size="17" font-style="italic">to your</text>
    <text x="120" y="340" text-anchor="middle" font-family="Georgia, 'Times New Roman', serif" font-size="17" font-style="italic">values</text>
  </g>
</svg>
