<svg xmlns="http://www.w3.org/2000/svg" fill="none" viewBox="0 0 80 54" height="54" width="80">
<path stroke="#151515" fill="#EF1400" d="M43.0768 42.2275L43.0768 42.2275L43.0738 42.2339L38.6362 51.6227C38.6361 51.6228 38.6361 51.6229 38.636 51.623C38.302 52.3236 37.7305 52.6314 37.1972 52.6314C36.6639 52.6314 36.0923 52.3236 35.7583 51.623C35.7583 51.6229 35.7582 51.6228 35.7582 51.6227L31.3244 42.2419C30.6784 40.7444 29.2812 39.7438 27.7454 39.7438H17.2599C8.07121 39.7438 0.5 31.0354 0.5 20.1219C0.5 9.20836 8.07121 0.5 17.2599 0.5H62.732C71.9207 0.5 79.4919 9.20835 79.4919 20.1219C79.4919 31.0354 71.9207 39.7438 62.732 39.7438H48.5867C47.852 39.7438 46.6901 39.9771 45.6336 40.3747C45.1007 40.5752 44.5747 40.8247 44.1309 41.1218C43.6937 41.4145 43.2962 41.7799 43.0768 42.2275Z"></path>
<path fill="white" d="M18.8083 27.2437V13.0037H27.2983V16.2187H22.3433V27.2437H18.8083ZM20.3533 21.9737V18.8537H26.5233V21.9737H20.3533ZM26.7507 27.2437L30.4707 13.0037H34.6107L38.3857 27.2437H34.7057L33.1657 20.0237C33.0524 19.437 32.9424 18.8287 32.8357 18.1987C32.7324 17.5687 32.6307 16.9303 32.5307 16.2837C32.4307 15.6337 32.3374 15.012 32.2507 14.4187L32.8307 14.4387C32.7374 15.0687 32.6457 15.6887 32.5557 16.2987C32.4657 16.9053 32.3674 17.527 32.2607 18.1637C32.154 18.797 32.0424 19.417 31.9257 20.0237L30.3807 27.2437H26.7507ZM30.1057 24.8237L30.1557 22.0787H35.1407L35.1857 24.8237H30.1057ZM44.3277 27.5587C43.1577 27.5587 42.1611 27.3087 41.3377 26.8087C40.5177 26.3087 39.8844 25.5103 39.4377 24.4137C38.9944 23.317 38.7727 21.892 38.7727 20.1387C38.7727 18.392 38.9944 16.972 39.4377 15.8787C39.8844 14.7853 40.5177 13.9903 41.3377 13.4937C42.1611 12.9937 43.1577 12.7437 44.3277 12.7437C45.4977 12.7437 46.4927 12.9937 47.3127 13.4937C48.1361 13.9903 48.7694 14.787 49.2127 15.8837C49.6594 16.977 49.8827 18.402 49.8827 20.1587C49.8827 21.912 49.6594 23.3353 49.2127 24.4287C48.7694 25.522 48.1377 26.317 47.3177 26.8137C46.4977 27.3103 45.5011 27.5587 44.3277 27.5587ZM44.3277 24.6287C44.7744 24.6287 45.1444 24.492 45.4377 24.2187C45.7311 23.9453 45.9511 23.4887 46.0977 22.8487C46.2477 22.2087 46.3227 21.3087 46.3227 20.1487C46.3227 19.0087 46.2477 18.122 46.0977 17.4887C45.9511 16.8553 45.7311 16.4037 45.4377 16.1337C45.1444 15.8603 44.7744 15.7237 44.3277 15.7237C43.8844 15.7237 43.5161 15.8587 43.2227 16.1287C42.9294 16.3987 42.7077 16.8503 42.5577 17.4837C42.4077 18.1137 42.3327 18.997 42.3327 20.1337C42.3327 21.2903 42.4077 22.1903 42.5577 22.8337C42.7077 23.477 42.9294 23.937 43.2227 24.2137C43.5161 24.4903 43.8844 24.6287 44.3277 24.6287ZM47.4377 29.2937L45.6427 26.3187L45.3227 25.2937L43.3677 22.9187L45.2977 21.6537L46.8327 24.3737L47.6927 25.0487L49.7077 27.7787L47.4377 29.2937ZM56.1301 27.5537C55.0434 27.5537 54.1351 27.397 53.4051 27.0837C52.6784 26.767 52.1151 26.257 51.7151 25.5537C51.3151 24.847 51.0834 23.9103 51.0201 22.7437H54.4701C54.4901 23.247 54.5617 23.642 54.6851 23.9287C54.8084 24.212 54.9851 24.412 55.2151 24.5287C55.4451 24.6453 55.7367 24.7037 56.0901 24.7037C56.4101 24.7037 56.6717 24.6603 56.8751 24.5737C57.0784 24.487 57.2267 24.3603 57.3201 24.1937C57.4134 24.027 57.4601 23.8153 57.4601 23.5587C57.4601 23.2387 57.4067 22.9637 57.3001 22.7337C57.1934 22.5037 57.0367 22.3037 56.8301 22.1337C56.6234 21.9637 56.3501 21.7887 56.0101 21.6087L54.1201 20.8937C53.5001 20.6237 52.9784 20.312 52.5551 19.9587C52.1351 19.6053 51.8084 19.1653 51.5751 18.6387C51.3451 18.1087 51.2301 17.4703 51.2301 16.7237C51.2301 15.9003 51.4084 15.192 51.7651 14.5987C52.1217 14.0053 52.6567 13.5487 53.3701 13.2287C54.0867 12.9053 54.9717 12.7437 56.0251 12.7437C57.0584 12.7437 57.9167 12.8937 58.6001 13.1937C59.2867 13.4937 59.8084 13.9637 60.1651 14.6037C60.5251 15.2437 60.7201 16.0753 60.7501 17.0987H57.3901C57.3667 16.6987 57.3051 16.3837 57.2051 16.1537C57.1084 15.9237 56.9651 15.757 56.7751 15.6537C56.5884 15.547 56.3467 15.4937 56.0501 15.4937C55.7834 15.4937 55.5601 15.532 55.3801 15.6087C55.2001 15.682 55.0634 15.792 54.9701 15.9387C54.8767 16.0853 54.8301 16.267 54.8301 16.4837C54.8301 16.7437 54.8751 16.9703 54.9651 17.1637C55.0584 17.3537 55.2034 17.5303 55.4001 17.6937C55.5967 17.857 55.8667 18.0337 56.2101 18.2237L58.0801 18.9287C58.7501 19.2153 59.3051 19.557 59.7451 19.9537C60.1884 20.3503 60.5217 20.8287 60.7451 21.3887C60.9684 21.9487 61.0801 22.597 61.0801 23.3337C61.0801 24.2703 60.8817 25.0537 60.4851 25.6837C60.0884 26.3137 59.5201 26.7837 58.7801 27.0937C58.0401 27.4003 57.1567 27.5537 56.1301 27.5537Z"></path>
</svg>
